<mxfile host="app.diagrams.net" modified="2024-06-06T18:06:49.548Z" agent="Mozilla/5.0 (Windows NT 10.0; Win64; x64) AppleWebKit/537.36 (KHTML, like Gecko) Chrome/125.0.0.0 Safari/537.36 Edg/125.0.0.0" etag="AIkIuu8meWcLbPE7jDFH" version="24.5.1" type="github">
  <diagram name="Page-1" id="13e1069c-82ec-6db2-03f1-153e76fe0fe0">
    <mxGraphModel dx="2074" dy="764" grid="1" gridSize="10" guides="1" tooltips="1" connect="1" arrows="1" fold="1" page="1" pageScale="1" pageWidth="1100" pageHeight="850" background="none" math="0" shadow="0">
      <root>
        <mxCell id="0" />
        <mxCell id="1" parent="0" />
        <mxCell id="ChlzXLGGVz2kL4XpYtJH-2" value="" style="rounded=0;whiteSpace=wrap;html=1;" vertex="1" parent="1">
          <mxGeometry x="40" y="20" width="1000" height="560" as="geometry" />
        </mxCell>
        <mxCell id="zLKjRMKosiY9dB-BW5_6-1" value=":IBE" style="shape=umlLifeline;perimeter=lifelinePerimeter;whiteSpace=wrap;html=1;container=1;collapsible=0;recursiveResize=0;outlineConnect=0;rounded=1;shadow=0;comic=0;labelBackgroundColor=none;strokeWidth=1;fontFamily=Verdana;fontSize=12;align=center;" parent="1" vertex="1">
          <mxGeometry x="50" y="40" width="100" height="480" as="geometry" />
        </mxCell>
        <mxCell id="zLKjRMKosiY9dB-BW5_6-2" value="" style="html=1;points=[];perimeter=orthogonalPerimeter;rounded=0;shadow=0;comic=0;labelBackgroundColor=none;strokeWidth=1;fontFamily=Verdana;fontSize=12;align=center;" parent="zLKjRMKosiY9dB-BW5_6-1" vertex="1">
          <mxGeometry x="45" y="90" width="10" height="140" as="geometry" />
        </mxCell>
        <mxCell id="zLKjRMKosiY9dB-BW5_6-4" value=":TIE" style="shape=umlLifeline;perimeter=lifelinePerimeter;whiteSpace=wrap;html=1;container=1;collapsible=0;recursiveResize=0;outlineConnect=0;rounded=1;shadow=0;comic=0;labelBackgroundColor=none;strokeWidth=1;fontFamily=Verdana;fontSize=12;align=center;" parent="1" vertex="1">
          <mxGeometry x="240" y="40" width="100" height="480" as="geometry" />
        </mxCell>
        <mxCell id="zLKjRMKosiY9dB-BW5_6-5" value="" style="html=1;points=[];perimeter=orthogonalPerimeter;rounded=0;shadow=0;comic=0;labelBackgroundColor=none;strokeWidth=1;fontFamily=Verdana;fontSize=12;align=center;" parent="zLKjRMKosiY9dB-BW5_6-4" vertex="1">
          <mxGeometry x="45" y="100" width="10" height="170" as="geometry" />
        </mxCell>
        <mxCell id="zLKjRMKosiY9dB-BW5_6-6" value=":DIM MS*" style="shape=umlLifeline;perimeter=lifelinePerimeter;whiteSpace=wrap;html=1;container=1;collapsible=0;recursiveResize=0;outlineConnect=0;rounded=1;shadow=0;comic=0;labelBackgroundColor=none;strokeWidth=1;fontFamily=Verdana;fontSize=12;align=center;" parent="1" vertex="1">
          <mxGeometry x="410" y="40" width="100" height="480" as="geometry" />
        </mxCell>
        <mxCell id="zLKjRMKosiY9dB-BW5_6-7" value="" style="html=1;points=[];perimeter=orthogonalPerimeter;rounded=0;shadow=0;comic=0;labelBackgroundColor=none;strokeWidth=1;fontFamily=Verdana;fontSize=12;align=center;" parent="zLKjRMKosiY9dB-BW5_6-6" vertex="1">
          <mxGeometry x="45" y="210" width="10" height="70" as="geometry" />
        </mxCell>
        <mxCell id="zLKjRMKosiY9dB-BW5_6-8" value=":Kafka" style="shape=umlLifeline;perimeter=lifelinePerimeter;whiteSpace=wrap;html=1;container=1;collapsible=0;recursiveResize=0;outlineConnect=0;rounded=1;shadow=0;comic=0;labelBackgroundColor=none;strokeWidth=1;fontFamily=Verdana;fontSize=12;align=center;" parent="1" vertex="1">
          <mxGeometry x="600" y="40" width="100" height="480" as="geometry" />
        </mxCell>
        <mxCell id="zLKjRMKosiY9dB-BW5_6-9" value="" style="html=1;points=[];perimeter=orthogonalPerimeter;rounded=0;shadow=0;comic=0;labelBackgroundColor=none;strokeWidth=1;fontFamily=Verdana;fontSize=12;align=center;" parent="zLKjRMKosiY9dB-BW5_6-8" vertex="1">
          <mxGeometry x="45" y="240" width="10" height="190" as="geometry" />
        </mxCell>
        <mxCell id="zLKjRMKosiY9dB-BW5_6-10" value=":Other MS" style="shape=umlLifeline;perimeter=lifelinePerimeter;whiteSpace=wrap;html=1;container=1;collapsible=0;recursiveResize=0;outlineConnect=0;rounded=1;shadow=0;comic=0;labelBackgroundColor=none;strokeWidth=1;fontFamily=Verdana;fontSize=12;align=center;" parent="1" vertex="1">
          <mxGeometry x="765" y="40" width="100" height="480" as="geometry" />
        </mxCell>
        <mxCell id="zLKjRMKosiY9dB-BW5_6-11" value="" style="html=1;points=[];perimeter=orthogonalPerimeter;rounded=0;shadow=0;comic=0;labelBackgroundColor=none;strokeWidth=1;fontFamily=Verdana;fontSize=12;align=center;" parent="zLKjRMKosiY9dB-BW5_6-10" vertex="1">
          <mxGeometry x="45" y="255" width="10" height="175" as="geometry" />
        </mxCell>
        <mxCell id="zLKjRMKosiY9dB-BW5_6-25" value="Consume Command" style="html=1;verticalAlign=bottom;endArrow=open;labelBackgroundColor=none;fontFamily=Verdana;fontSize=12;entryX=-0.062;entryY=0.011;entryDx=0;entryDy=0;entryPerimeter=0;endFill=0;" parent="zLKjRMKosiY9dB-BW5_6-10" edge="1">
          <mxGeometry relative="1" as="geometry">
            <mxPoint x="-110" y="255" as="sourcePoint" />
            <mxPoint x="45" y="255" as="targetPoint" />
          </mxGeometry>
        </mxCell>
        <mxCell id="zLKjRMKosiY9dB-BW5_6-12" value=":Oracle DB" style="shape=umlLifeline;perimeter=lifelinePerimeter;whiteSpace=wrap;html=1;container=1;collapsible=0;recursiveResize=0;outlineConnect=0;rounded=1;shadow=0;comic=0;labelBackgroundColor=none;strokeWidth=1;fontFamily=Verdana;fontSize=12;align=center;" parent="1" vertex="1">
          <mxGeometry x="930" y="40" width="100" height="480" as="geometry" />
        </mxCell>
        <mxCell id="zLKjRMKosiY9dB-BW5_6-13" value="" style="html=1;points=[];perimeter=orthogonalPerimeter;rounded=0;shadow=0;comic=0;labelBackgroundColor=none;strokeWidth=1;fontFamily=Verdana;fontSize=12;align=center;" parent="zLKjRMKosiY9dB-BW5_6-12" vertex="1">
          <mxGeometry x="45" y="270" width="10" height="30" as="geometry" />
        </mxCell>
        <mxCell id="zLKjRMKosiY9dB-BW5_6-32" value="" style="html=1;points=[];perimeter=orthogonalPerimeter;rounded=0;shadow=0;comic=0;labelBackgroundColor=none;strokeWidth=1;fontFamily=Verdana;fontSize=12;align=center;" parent="zLKjRMKosiY9dB-BW5_6-12" vertex="1">
          <mxGeometry x="45" y="380" width="10" height="30" as="geometry" />
        </mxCell>
        <mxCell id="zLKjRMKosiY9dB-BW5_6-33" value="Save data" style="html=1;verticalAlign=bottom;endArrow=open;labelBackgroundColor=none;fontFamily=Verdana;fontSize=12;endFill=0;" parent="zLKjRMKosiY9dB-BW5_6-12" source="zLKjRMKosiY9dB-BW5_6-11" edge="1">
          <mxGeometry relative="1" as="geometry">
            <mxPoint x="-100" y="379" as="sourcePoint" />
            <mxPoint x="45" y="379.30999999999995" as="targetPoint" />
          </mxGeometry>
        </mxCell>
        <mxCell id="zLKjRMKosiY9dB-BW5_6-34" value="Data saved" style="html=1;verticalAlign=bottom;endArrow=open;dashed=1;endSize=8;labelBackgroundColor=none;fontFamily=Verdana;fontSize=12;edgeStyle=elbowEdgeStyle;elbow=vertical;" parent="zLKjRMKosiY9dB-BW5_6-12" target="zLKjRMKosiY9dB-BW5_6-11" edge="1">
          <mxGeometry relative="1" as="geometry">
            <mxPoint x="-90" y="409" as="targetPoint" />
            <Array as="points">
              <mxPoint x="-85" y="409.30999999999995" />
            </Array>
            <mxPoint x="40" y="409.30999999999995" as="sourcePoint" />
          </mxGeometry>
        </mxCell>
        <mxCell id="zLKjRMKosiY9dB-BW5_6-17" value="Send data" style="html=1;verticalAlign=bottom;endArrow=open;labelBackgroundColor=none;fontFamily=Verdana;fontSize=12;exitX=0.89;exitY=0.841;exitDx=0;exitDy=0;exitPerimeter=0;endFill=0;" parent="1" edge="1">
          <mxGeometry relative="1" as="geometry">
            <mxPoint x="293.89999999999964" y="249.9999999999999" as="sourcePoint" />
            <mxPoint x="455" y="249.9999999999999" as="targetPoint" />
          </mxGeometry>
        </mxCell>
        <mxCell id="zLKjRMKosiY9dB-BW5_6-16" value="Send data integration" style="html=1;verticalAlign=bottom;endArrow=block;labelBackgroundColor=none;fontFamily=Verdana;fontSize=12;exitX=1;exitY=0.529;exitDx=0;exitDy=0;exitPerimeter=0;" parent="1" edge="1">
          <mxGeometry relative="1" as="geometry">
            <mxPoint x="105" y="230" as="sourcePoint" />
            <mxPoint x="285" y="230" as="targetPoint" />
          </mxGeometry>
        </mxCell>
        <mxCell id="zLKjRMKosiY9dB-BW5_6-20" value="Request valid Token" style="html=1;verticalAlign=bottom;endArrow=block;labelBackgroundColor=none;fontFamily=Verdana;fontSize=12;entryX=0.2;entryY=0;entryDx=0;entryDy=0;entryPerimeter=0;exitX=0.845;exitY=0.066;exitDx=0;exitDy=0;exitPerimeter=0;" parent="1" source="zLKjRMKosiY9dB-BW5_6-2" target="zLKjRMKosiY9dB-BW5_6-5" edge="1">
          <mxGeometry relative="1" as="geometry">
            <mxPoint x="120" y="140" as="sourcePoint" />
            <mxPoint x="280" y="140" as="targetPoint" />
          </mxGeometry>
        </mxCell>
        <mxCell id="zLKjRMKosiY9dB-BW5_6-22" value="Valid Token" style="html=1;verticalAlign=bottom;endArrow=open;dashed=1;endSize=8;labelBackgroundColor=none;fontFamily=Verdana;fontSize=12;edgeStyle=elbowEdgeStyle;elbow=vertical;exitX=0.1;exitY=0.3;exitDx=0;exitDy=0;exitPerimeter=0;" parent="1" source="zLKjRMKosiY9dB-BW5_6-5" target="zLKjRMKosiY9dB-BW5_6-2" edge="1">
          <mxGeometry relative="1" as="geometry">
            <mxPoint x="120" y="180" as="targetPoint" />
            <Array as="points" />
            <mxPoint x="270" y="180" as="sourcePoint" />
          </mxGeometry>
        </mxCell>
        <mxCell id="zLKjRMKosiY9dB-BW5_6-19" value="Create Command" style="html=1;verticalAlign=bottom;endArrow=open;labelBackgroundColor=none;fontFamily=Verdana;fontSize=12;entryX=-0.062;entryY=0.011;entryDx=0;entryDy=0;entryPerimeter=0;exitX=1.129;exitY=0.426;exitDx=0;exitDy=0;exitPerimeter=0;endFill=0;" parent="1" source="zLKjRMKosiY9dB-BW5_6-7" target="zLKjRMKosiY9dB-BW5_6-9" edge="1">
          <mxGeometry relative="1" as="geometry">
            <mxPoint x="480" y="280" as="sourcePoint" />
            <mxPoint x="610" y="280" as="targetPoint" />
          </mxGeometry>
        </mxCell>
        <mxCell id="zLKjRMKosiY9dB-BW5_6-23" value="Return OK" style="html=1;verticalAlign=bottom;endArrow=open;dashed=1;endSize=8;labelBackgroundColor=none;fontFamily=Verdana;fontSize=12;edgeStyle=elbowEdgeStyle;elbow=vertical;" parent="1" target="zLKjRMKosiY9dB-BW5_6-2" edge="1">
          <mxGeometry relative="1" as="geometry">
            <mxPoint x="110" y="260" as="targetPoint" />
            <Array as="points">
              <mxPoint x="270" y="260" />
            </Array>
            <mxPoint x="285" y="260" as="sourcePoint" />
          </mxGeometry>
        </mxCell>
        <mxCell id="zLKjRMKosiY9dB-BW5_6-24" value="Return OK" style="html=1;verticalAlign=bottom;endArrow=open;dashed=1;endSize=8;labelBackgroundColor=none;fontFamily=Verdana;fontSize=12;edgeStyle=elbowEdgeStyle;elbow=vertical;" parent="1" source="zLKjRMKosiY9dB-BW5_6-7" target="zLKjRMKosiY9dB-BW5_6-5" edge="1">
          <mxGeometry relative="1" as="geometry">
            <mxPoint x="310" y="300" as="targetPoint" />
            <Array as="points">
              <mxPoint x="445" y="300" />
            </Array>
            <mxPoint x="450" y="300" as="sourcePoint" />
          </mxGeometry>
        </mxCell>
        <mxCell id="zLKjRMKosiY9dB-BW5_6-26" value="Save data" style="html=1;verticalAlign=bottom;endArrow=open;labelBackgroundColor=none;fontFamily=Verdana;fontSize=12;endFill=0;" parent="1" edge="1">
          <mxGeometry relative="1" as="geometry">
            <mxPoint x="820" y="310" as="sourcePoint" />
            <mxPoint x="980" y="310" as="targetPoint" />
          </mxGeometry>
        </mxCell>
        <mxCell id="zLKjRMKosiY9dB-BW5_6-28" value="Create events" style="html=1;verticalAlign=bottom;endArrow=open;dashed=1;endSize=8;labelBackgroundColor=none;fontFamily=Verdana;fontSize=12;edgeStyle=elbowEdgeStyle;elbow=vertical;exitX=0.103;exitY=0.536;exitDx=0;exitDy=0;exitPerimeter=0;" parent="1" edge="1">
          <mxGeometry relative="1" as="geometry">
            <mxPoint x="653.97" y="360" as="targetPoint" />
            <Array as="points">
              <mxPoint x="738.97" y="360" />
            </Array>
            <mxPoint x="810.0000000000002" y="360.55999999999995" as="sourcePoint" />
          </mxGeometry>
        </mxCell>
        <mxCell id="zLKjRMKosiY9dB-BW5_6-29" value="Data saved" style="html=1;verticalAlign=bottom;endArrow=open;dashed=1;endSize=8;labelBackgroundColor=none;fontFamily=Verdana;fontSize=12;edgeStyle=elbowEdgeStyle;elbow=vertical;" parent="1" source="zLKjRMKosiY9dB-BW5_6-13" target="zLKjRMKosiY9dB-BW5_6-11" edge="1">
          <mxGeometry relative="1" as="geometry">
            <mxPoint x="870" y="350" as="targetPoint" />
            <Array as="points">
              <mxPoint x="850" y="340" />
            </Array>
            <mxPoint x="960" y="339" as="sourcePoint" />
          </mxGeometry>
        </mxCell>
        <mxCell id="zLKjRMKosiY9dB-BW5_6-30" value="Command created" style="html=1;verticalAlign=bottom;endArrow=open;dashed=1;endSize=8;labelBackgroundColor=none;fontFamily=Verdana;fontSize=12;edgeStyle=elbowEdgeStyle;elbow=vertical;" parent="1" edge="1">
          <mxGeometry relative="1" as="geometry">
            <mxPoint x="465" y="320.0041379310344" as="targetPoint" />
            <Array as="points" />
            <mxPoint x="645" y="320.2413793103449" as="sourcePoint" />
          </mxGeometry>
        </mxCell>
        <mxCell id="zLKjRMKosiY9dB-BW5_6-31" value="Consume events" style="html=1;verticalAlign=bottom;endArrow=open;labelBackgroundColor=none;fontFamily=Verdana;fontSize=12;entryX=-0.062;entryY=0.011;entryDx=0;entryDy=0;entryPerimeter=0;endFill=0;" parent="1" edge="1">
          <mxGeometry relative="1" as="geometry">
            <mxPoint x="655" y="400" as="sourcePoint" />
            <mxPoint x="810" y="400" as="targetPoint" />
          </mxGeometry>
        </mxCell>
        <mxCell id="zLKjRMKosiY9dB-BW5_6-35" value="Create events &lt;br&gt;or commands" style="html=1;verticalAlign=bottom;endArrow=open;dashed=1;endSize=8;labelBackgroundColor=none;fontFamily=Verdana;fontSize=12;edgeStyle=elbowEdgeStyle;elbow=vertical;exitX=0.103;exitY=0.536;exitDx=0;exitDy=0;exitPerimeter=0;" parent="1" edge="1">
          <mxGeometry relative="1" as="geometry">
            <mxPoint x="653.97" y="470" as="targetPoint" />
            <Array as="points">
              <mxPoint x="738.97" y="470" />
            </Array>
            <mxPoint x="810.0000000000002" y="470.55999999999995" as="sourcePoint" />
          </mxGeometry>
        </mxCell>
        <mxCell id="ChlzXLGGVz2kL4XpYtJH-1" value="* DIM MS: Data Interoperability Mapper" style="text;html=1;align=center;verticalAlign=middle;resizable=0;points=[];autosize=1;strokeColor=none;fillColor=none;" vertex="1" parent="1">
          <mxGeometry x="800" y="550" width="230" height="30" as="geometry" />
        </mxCell>
      </root>
    </mxGraphModel>
  </diagram>
</mxfile>
